<svg version="1.1" xmlns="http://www.w3.org/2000/svg" xmlns:xlink="http://www.w3.org/1999/xlink" x="0px" y="0px" viewBox="0 0 1024 1024" style="enable-background:new 0 0 1024 1024;" xml:space="preserve">
<style type="text/css">
	.st0{fill:#1E1F22;}
	.st1{fill:#BCBEC4;}
	.st2{fill:#55A8F5;}
</style>
<g>
	<rect x="0" class="st0" width="1024" height="1024"/>
</g>
<g>
	<path class="st1" d="M237.84,696.05c-36.56-8.18-64.87-25.31-84.93-51.38c-20.07-26.07-30.1-58.79-30.1-98.16v-69.02c0-39.36,10.03-72.09,30.1-98.16c20.06-26.07,48.37-43.2,84.93-51.38v33.36c-16.36,3.83-30.62,11.12-42.75,21.86c-12.14,10.74-21.47,24.1-27.99,40.07c-6.52,15.98-9.78,34.07-9.78,54.26v69.02c0,19.94,3.26,37.96,9.78,54.06c6.52,16.11,15.85,29.53,27.99,40.26c12.14,10.74,26.39,18.02,42.75,21.86V696.05z"/>
	<path id="D" class="st2" d="M317.21,650.04V370.13h72.47c18.15,0,33.8,3.45,46.97,10.35c13.16,6.9,23.39,16.62,30.68,29.14c7.29,12.53,10.93,27.36,10.93,44.48v111.58c0,17.13-3.64,32.02-10.93,44.67c-7.29,12.65-17.51,22.43-30.68,29.33c-13.17,6.9-28.82,10.35-46.97,10.35H317.21z M351.72,619.36h37.96c16.87,0,30.1-4.73,39.69-14.19c9.59-9.45,14.38-22.62,14.38-39.49V454.1c0-16.61-4.79-29.65-14.38-39.11c-9.59-9.45-22.82-14.19-39.69-14.19h-37.96V619.36z"/>
	<path id="M" class="st2" d="M539.61,650.04V370.13h51l35.66,121.17l37.19-121.17h51v279.91H681.1V517.75c0-12.52,0.19-26.9,0.57-43.14c0.38-16.23,0.96-32.65,1.73-49.27c0.77-16.61,1.66-31.57,2.68-44.86l-45.25,144.56h-29.91L567.6,383.93c1.53,12.53,2.68,25.95,3.45,40.26c0.77,14.32,1.28,29.27,1.53,44.86c0.25,15.6,0.38,31.83,0.38,48.7v132.29H539.61z"/>
	<path id="_x29_" class="st1" d="M786.16,696.05v-33.36c16.61-3.83,30.93-11.12,42.95-21.86c12.01-10.74,21.28-24.16,27.8-40.26c6.52-16.1,9.78-34.13,9.78-54.06v-69.02c0-20.19-3.26-38.28-9.78-54.26c-6.52-15.97-15.79-29.33-27.8-40.07c-12.02-10.74-26.33-18.02-42.95-21.86v-33.36c36.55,8.18,64.86,25.31,84.93,51.38c20.06,26.07,30.1,58.8,30.1,98.16v69.02c0,39.37-10.04,72.09-30.1,98.16C851.02,670.75,822.71,687.87,786.16,696.05z"/>
</g>
</svg>
